Coordinates
version=1
nRows=8
nColumns=40
inDegrees=yes

Units are S.I. units (second, meters, Newtons, ...)
Angles are in degrees.

endheader
time	pelvis_tilt	pelvis_list	pelvis_rotation	pelvis_tx	pelvis_ty	pelvis_tz	hip_flexion_r	hip_adduction_r	hip_rotation_r	knee_angle_r	knee_angle_r_beta	ankle_angle_r	subtalar_angle_r	mtp_angle_r	hip_flexion_l	hip_adduction_l	hip_rotation_l	knee_angle_l	knee_angle_l_beta	ankle_angle_l	subtalar_angle_l	mtp_angle_l	lumbar_extension	lumbar_bending	lumbar_rotation	arm_flex_r	arm_add_r	arm_rot_r	elbow_flex_r	pro_sup_r	wrist_flex_r	wrist_dev_r	arm_flex_l	arm_add_l	arm_rot_l	elbow_flex_l	pro_sup_l	wrist_flex_l	wrist_dev_l
      0.67000000	     -2.88557345	     -2.03966926	     10.01502114	     -0.13328920	      0.87399442	     -1.46943464	     28.05274402	     -0.16619890	    -12.72316256	    -31.02636366	     -0.54151220	      1.99354869	    -11.25217641	      8.45351271	     -2.20190594	      9.10858445	      2.95138357	    -47.33484675	     -0.82614893	    -24.38296830	      8.70239099	     -2.85800779	     -0.46819685	      1.88752403	    -12.94450236	    -14.03721251	     -8.61682420	    -19.39965774	     20.38166323	     89.95437384	      0.00000000	      0.00000000	     -1.69268040	     16.25010343	     16.91622365	     72.29489057	     89.95437384	      0.00000000	      0.00000000
      0.68000000	     -3.24531037	     -2.30620730	      9.72285279	     -0.12013413	      0.87440151	     -1.46835239	     27.68382475	      0.34493810	    -12.69782444	    -31.26244390	     -0.54563258	      2.69636220	    -10.96999069	      8.39713666	      0.18284188	      9.20456921	      2.30327228	    -50.68540657	     -0.88462723	    -25.82755187	     10.66387234	     -2.05915950	     -0.09182777	      2.21956318	    -12.46537461	    -13.83884226	     -8.57867871	    -18.72924252	     21.12100708	     89.95437384	      0.00000000	      0.00000000	     -2.36137651	     15.88490155	     16.71239142	     71.48393169	     89.95437384	      0.00000000	      0.00000000
      0.69000000	     -3.09690912	     -2.50693735	      9.37800449	     -0.10681018	      0.87573596	     -1.46721062	     26.54138091	      0.92276196	    -12.71507075	    -31.15554597	     -0.54376686	      3.67687527	    -10.54870553	      8.15034977	      1.85954526	      9.29490452	      1.89095551	    -53.55472652	     -0.93470631	    -26.99667082	     12.31657651	     -1.48249405	     -0.31633172	      2.56013073	    -11.89445110	    -13.48965429	     -8.49199116	    -18.28014916	     21.84409722	     89.95437384	      0.00000000	      0.00000000	     -2.96697201	     15.60936040	     16.36625790	     70.59453529	     89.95437384	      0.00000000	      0.00000000
      0.70000000	     -3.13793832	     -2.74217693	      9.03327855	     -0.09382114	      0.87673969	     -1.46628288	     25.59189852	      1.43277693	    -12.86956107	    -30.97944532	     -0.54069332	      4.45400708	     -9.91321905	      7.86925111	      3.83965753	      9.40300608	      1.79291328	    -56.49953336	     -0.98610288	    -26.48137550	     14.62405721	     -0.82556155	     -0.34660862	      2.92239820	    -11.30716497	    -13.27975049	     -8.49035447	    -17.60986316	     22.87017859	     89.95437384	      0.00000000	      0.00000000	     -3.53892897	     15.21111190	     16.09406891	     69.60398433	     89.95437384	      0.00000000	      0.00000000
      0.71000000	     -3.27181423	     -2.70174663	      8.71900133	     -0.08102899	      0.87772402	     -1.46558583	     24.75421225	      1.53403353	    -13.14742816	    -30.92618203	     -0.53976370	      5.18541309	     -9.00299739	      7.43184167	      6.01742210	      9.14781630	      1.81039031	    -59.49938589	     -1.03846019	    -23.69205623	     15.32256944	     12.94116206	     -0.31758097	      2.94517512	    -10.78732585	    -13.02808491	     -8.49985477	    -16.70451696	     23.90615673	     89.95437384	      0.00000000	      0.00000000	     -4.18171239	     14.82173668	     15.94186694	     68.61385573	     89.95437384	      0.00000000	      0.00000000
      0.72000000	     -3.09209215	     -2.77095402	      8.32900098	     -0.06795118	      0.87922894	     -1.46455969	     23.38247282	      1.97288615	    -13.11649863	    -30.48009872	     -0.53197808	      6.01168135	     -8.51417774	      7.10587409	      7.65305470	      9.17096869	      2.03660721	    -61.80613148	     -1.07872049	    -22.23982078	     16.76267096	     12.82425365	     -0.60584584	      3.12417527	    -10.10773254	    -12.75445737	     -8.50404589	    -16.03160991	     24.99065993	     89.95437384	      0.00000000	      0.00000000	     -4.74700594	     14.48818966	     15.60515926	     67.48765700	     89.95437384	      0.00000000	      0.00000000
      0.73000000	     -2.93827924	     -2.79688104	      7.93612079	     -0.05500884	      0.88075760	     -1.46363622	     21.99670579	      2.34358208	    -13.02466658	    -29.95747538	     -0.52285658	      6.72077271	     -7.91824263	      6.75504832	      9.32210645	      9.13220448	      2.29842116	    -63.87413333	     -1.11481393	    -20.37303548	     17.61176355	     12.74565406	     -0.87896563	      3.23839977	     -9.47057442	    -12.43586105	     -8.51126538	    -15.35763976	     26.14802226	     89.95437384	      0.00000000	      0.00000000	     -5.33294252	     14.10905075	     15.37041368	     66.30347630	     89.95437384	      0.00000000	      0.00000000
      0.74000000	     -2.85828923	     -3.02991736	      7.46726072	     -0.04210297	      0.88206624	     -1.46227507	     20.63477746	      2.94475243	    -13.04496428	    -29.23201150	     -0.51019485	      7.23879431	     -7.25543062	      6.16339747	     11.11859905	      9.45127547	      2.74386101	    -65.76115010	     -1.14774859	    -18.05593883	     18.05648083	     14.18972211	     -1.05294041	      3.52190320	     -8.73644246	    -12.27668538	     -8.69958114	    -14.02718356	     27.59830037	     89.95437384	      0.00000000	      0.00000000	     -5.95796743	     13.75623611	     15.13496873	     65.19014227	     89.95437384	      0.00000000	      0.00000000
